Motion_pl06
version=1
nRows=12
nColumns=43
inDegrees=yes
endheader
time	pelvis_tilt	pelvis_list	pelvis_rotation	pelvis_tx	pelvis_ty	pelvis_tz	hip_flexion_r	hip_adduction_r	hip_rotation_r	knee_angle_r	ankle_angle_r	subtalar_angle_r	mtp_angle_r	hip_flexion_l	hip_adduction_l	hip_rotation_l	knee_angle_l	ankle_angle_l	subtalar_angle_l	mtp_angle_l	lumbar_extension	lumbar_bending	lumbar_rotation	neck_flexion	neck_lateral_bending	neck_rotation	arm_flex_r	arm_add_r	arm_rot_r	elbow_flex_r	pro_sup_r	wrist_flex_r	wrist_dev_r	hand_finger_flex_r	arm_flex_l	arm_add_l	arm_rot_l	elbow_flex_l	pro_sup_l	wrist_flex_l	wrist_dev_l	hand_finger_flex_l
      0.00250000	      3.50048208	    -18.91815367	     91.91244087	      0.00702470	      1.84316519	      1.90514561	     78.85513713	    -13.69756441	     -2.11723067	   -116.01861033	     38.57128833	      4.53819715	    -12.72487124	     80.02004713	    -11.98187857	      1.24994503	   -116.13498664	     43.11613882	      1.31214462	    -24.69541850	    -27.08576586	      2.25058859	      1.50881836	     20.97670749	      1.62182224	      3.62834837	    -20.54357329	     -9.71905662	    -35.12021482	     80.06375583	     88.80612434	    -15.86036396	    -24.19568715	     41.74797684	    -16.77231025	    -14.40125857	    -24.76619240	     87.22284298	     96.09171271	    -47.45688153	     -2.69586396	     74.66778658
      0.00500000	      3.50793593	    -18.81254379	     91.88204716	      0.00709207	      1.84099104	      1.90521660	     79.01122201	    -13.73534521	     -2.08844027	   -116.43162498	     38.60172906	      4.50525920	    -12.76154438	     80.18630850	    -12.04145876	      1.30189071	   -116.56508929	     43.13039782	      1.27416491	    -24.74634954	    -27.37729422	      2.22969495	      1.51655247	     21.12383527	      1.61368961	      3.62334173	    -20.49748388	     -9.74377751	    -35.05095271	     79.91796943	     88.85116285	    -15.87128661	    -24.16349140	     41.77569127	    -16.74985701	    -14.56552127	    -24.73939700	     87.01900483	     96.03552756	    -47.40595196	     -2.74078301	     74.63217859
      0.00750000	      3.34430075	    -18.75287790	     91.62387550	      0.00747104	      1.83905323	      1.90553254	     79.30029697	    -13.60301008	     -1.85416272	   -116.78850826	     38.64937793	      4.35774447	    -13.96743204	     80.29762971	    -12.21855509	      1.13524462	   -116.91035422	     43.28709520	      1.17031489	    -26.25580919	    -27.73628225	      1.98332253	      1.65563637	     21.59479165	      1.52625823	      3.55309036	    -20.44563644	     -9.72493077	    -35.07767892	     79.78379099	     88.91464682	    -15.80491826	    -24.54453773	     42.82611090	    -16.69789620	    -14.86315994	    -24.57618640	     86.72835851	     93.59403803	    -46.48803291	     -4.32893577	     73.90261534
      0.01000000	      3.34831516	    -18.66889353	     91.61838954	      0.00744580	      1.83695061	      1.90568664	     79.46615942	    -13.66273004	     -1.82038538	   -117.17256659	     38.70345920	      4.34820809	    -13.98258122	     80.47850007	    -12.22860264	      1.20095390	   -117.31933768	     43.33317003	      1.15140398	    -26.27748471	    -28.01402746	      1.97511130	      1.64181704	     21.71475120	      1.54345407	      3.56923563	    -20.40356838	     -9.73476437	    -35.03919225	     79.68098571	     88.90059814	    -15.80287617	    -24.51620000	     42.83403807	    -16.63321668	    -14.94352208	    -24.60694641	     86.55496251	     93.57680169	    -46.49482954	     -4.30650559	     73.88293322
      0.01250000	      3.35049127	    -18.59281333	     91.61137582	      0.00743959	      1.83480612	      1.90583098	     79.65504714	    -13.72560720	     -1.77289551	   -117.55912137	     38.75929363	      4.34584084	    -14.00484038	     80.67323097	    -12.23647446	      1.27209701	   -117.72004870	     43.37632455	      1.14121030	    -26.30782957	    -28.28193498	      1.95619952	      1.62817855	     21.92965907	      1.56891830	      3.59829885	    -20.38626255	     -9.76046671	    -34.98087940	     79.58837610	     88.85975754	    -15.76639146	    -24.50333164	     42.86011583	    -16.57959924	    -15.05491822	    -24.62838399	     86.37581755	     93.51402800	    -46.48741740	     -4.27508965	     73.86961169
      0.01500000	      3.30841116	    -18.64706371	     91.59884295	      0.00738853	      1.83264360	      1.90629602	     79.99626830	    -13.80236160	     -1.68149828	   -117.90253734	     38.83789500	      4.41585947	    -14.12764451	     80.99745880	    -12.19899744	      1.29510131	   -118.07029913	     43.40543641	      1.20669820	    -26.45917670	    -28.53991491	      1.90149003	      1.58714593	     22.62411255	      1.62537587	      3.72250335	    -20.39894963	     -9.83287080	    -34.88589853	     79.58098309	     88.54178266	    -15.52719171	    -24.60843935	     43.02136112	    -16.55443404	    -15.24776758	    -24.56780095	     86.36041401	     93.11945274	    -46.40808641	     -4.23526177	     73.87921070
      0.01750000	      3.30236582	    -18.55946667	     91.57245652	      0.00738647	      1.83059113	      1.90642255	     80.15972895	    -13.84402688	     -1.63779105	   -118.28201610	     38.87578044	      4.40139267	    -14.14267312	     81.15850949	    -12.21287607	      1.35283428	   -118.46482676	     43.45342418	      1.17734828	    -26.47650376	    -28.80610318	      1.87943109	      1.57944440	     22.68229546	      1.63280743	      3.72676442	    -20.33587723	     -9.82635902	    -34.87589142	     79.47225734	     88.48126024	    -15.49690609	    -24.60636999	     43.04022922	    -16.48515594	    -15.31484782	    -24.62080917	     86.20949303	     93.03914337	    -46.40792585	     -4.21508648	     73.86790810
      0.02000000	      3.13659101	    -18.61721340	     91.44561058	      0.00742455	      1.82828894	      1.90677403	     80.59793839	    -13.88328155	     -1.36960605	   -118.67148144	     38.91675626	      4.45339180	    -14.46689722	     81.42499855	    -12.22468740	      1.22425391	   -118.81647664	     43.51030178	      1.19233209	    -26.82888986	    -28.99855608	      1.65575524	      1.54591158	     23.16126888	      1.71211516	      3.80768464	    -20.29281922	     -9.83424137	    -34.84328683	     79.28010158	     87.39096970	    -14.88625323	    -24.99999983	     43.44756238	    -16.49709991	    -15.47907342	    -24.61923081	     86.23792350	     91.82869370	    -46.30004891	     -4.30445690	     73.87079129
      0.02250000	      3.13023196	    -18.53299593	     91.41643904	      0.00745428	      1.82628985	      1.90692500	     80.74831723	    -13.90838401	     -1.33104619	   -119.03693245	     38.96015893	      4.43159049	    -14.47855333	     81.58660530	    -12.23567504	      1.28725477	   -119.19984853	     43.56098107	      1.15567767	    -26.84110883	    -29.27072381	      1.63591724	      1.52196068	     23.22313484	      1.72052428	      3.80720632	    -20.22822006	     -9.85512812	    -34.77815068	     79.20998163	     87.36738090	    -14.86854310	    -24.99608456	     43.45877559	    -16.42419943	    -15.59998171	    -24.61656673	     86.09988014	     91.79466783	    -46.29686627	     -4.30642716	     73.85811421
      0.02500000	      3.12472640	    -18.44837793	     91.38545150	      0.00747675	      1.82420967	      1.90707258	     80.92742154	    -13.93761632	     -1.27228423	   -119.40972957	     39.00755150	      4.40549735	    -14.49404872	     81.75673681	    -12.25030806	      1.35075318	   -119.58617275	     43.60619313	      1.12443647	    -26.85745449	    -29.54398572	      1.60503000	      1.51028623	     23.36668021	      1.72874859	      3.81975908	    -20.17478216	     -9.88096038	    -34.72305308	     79.14754713	     87.30086273	    -14.83416670	    -24.99999983	     43.47824553	    -16.37576384	    -15.73888787	    -24.60650412	     85.99099884	     91.74054808	    -46.29259912	     -4.31775557	     73.84696904
      0.02750000	      2.88242221	    -18.46659330	     91.18358777	      0.00767101	      1.82206533	      1.90746108	     81.33754461	    -13.90682125	     -0.93138248	   -119.78304612	     39.02578829	      4.36696819	    -14.90156560	     81.93791801	    -12.30275676	      1.13751737	   -119.91269572	     43.67007349	      1.08267803	    -27.23327239	    -29.81265683	      1.28240547	      1.46838609	     23.86043543	      1.81365327	      3.86137698	    -20.14778614	     -9.92989905	    -34.54843379	     79.12391229	     85.89200659	    -14.38343614	    -24.99999983	     43.84260066	    -16.39645189	    -16.03451183	    -24.45579112	     86.03894473	     90.73228176	    -46.42794330	     -4.80732954	     73.73058734
      0.03000000	      2.88500819	    -18.38532180	     91.15293018	      0.00762466	      1.82003187	      1.90760502	     81.50486997	    -13.94027693	     -0.89297453	   -120.14873623	     39.07841117	      4.34434175	    -14.90963281	     82.09934650	    -12.30833364	      1.19995935	   -120.28992941	     43.71521603	      1.05310842	    -27.24096546	    -30.08463539	      1.27120879	      1.45982024	     23.95524659	      1.81877892	      3.87044807	    -20.06452203	     -9.94857430	    -34.52924184	     79.06573970	     85.87375488	    -14.38937374	    -24.99999983	     43.84472272	    -16.31234706	    -16.12506632	    -24.46795868	     85.95155608	     90.71621965	    -46.43449394	     -4.81390292	     73.71960215
